/* XPM */
static char *_e013391fca542bfc30a6e796e5a1a3eHNsk6h70PXlREzIG[] = {
/* columns rows colors chars-per-pixel */
"64 64 6 1 ",
"  c None",
". c #231E2B",
"X c #CF8934",
"o c #E2B436",
"O c #F5F38E",
"+ c #F7FEFF",
/* pixels */
"                ++++++++++++++++++++++++++++++++                ",
"                ++++++++++++++++++++++++++++++++                ",
"                ++++++++++++++++++++++++++++++++                ",
"                ++++++++++++++++++++++++++++++++                ",
"            ++++................................++++            ",
"            ++++................................++++            ",
"            ++++................................++++            ",
"            ++++................................++++            ",
"        ++++....ooooooooooooooooooooOOOOOOOOOOOO....++++        ",
"        ++++....ooooooooooooooooooooOOOOOOOOOOOO....++++        ",
"        ++++....ooooooooooooooooooooOOOOOOOOOOOO....++++        ",
"        ++++....ooooooooooooooooooooOOOOOOOOOOOO....++++        ",
"    ++++....ooooooooXXXXXXXXXXXXXXXXXXXXXXXXooooOOOO....++++    ",
"    ++++....ooooooooXXXXXXXXXXXXXXXXXXXXXXXXooooOOOO....++++    ",
"    ++++....ooooooooXXXXXXXXXXXXXXXXXXXXXXXXooooOOOO....++++    ",
"    ++++....ooooooooXXXXXXXXXXXXXXXXXXXXXXXXooooOOOO....++++    ",
"    ++++....oooooooo........................oooooooo....++++    ",
"    ++++....oooooooo........................oooooooo....++++    ",
"    ++++....oooooooo........................oooooooo....++++    ",
"    ++++....oooooooo........................oooooooo....++++    ",
"    ++++....XXXXooooOOOOOOOOOOOOooooooooooooooooXXXX....++++    ",
"    ++++....XXXXooooOOOOOOOOOOOOooooooooooooooooXXXX....++++    ",
"    ++++....XXXXooooOOOOOOOOOOOOooooooooooooooooXXXX....++++    ",
"    ++++....XXXXooooOOOOOOOOOOOOooooooooooooooooXXXX....++++    ",
"        ++++....XXXXXXXXXXXXooooooooXXXXXXXXXXXX....++++        ",
"        ++++....XXXXXXXXXXXXooooooooXXXXXXXXXXXX....++++        ",
"        ++++....XXXXXXXXXXXXooooooooXXXXXXXXXXXX....++++        ",
"        ++++....XXXXXXXXXXXXooooooooXXXXXXXXXXXX....++++        ",
"            ++++............oooooooo............++++            ",
"            ++++............oooooooo............++++            ",
"            ++++............oooooooo............++++            ",
"            ++++............oooooooo............++++            ",
"                ++++++++....ooooOOOO....++++++++                ",
"                ++++++++....ooooOOOO....++++++++                ",
"                ++++++++....ooooOOOO....++++++++                ",
"                ++++++++....ooooOOOO....++++++++                ",
"                    ++++....ooooOOOO........++++                ",
"                    ++++....ooooOOOO........++++                ",
"                    ++++....ooooOOOO........++++                ",
"                    ++++....ooooOOOO........++++                ",
"                    ++++....ooooooooOOOOOOOO....++++            ",
"                    ++++....ooooooooOOOOOOOO....++++            ",
"                    ++++....ooooooooOOOOOOOO....++++            ",
"                    ++++....ooooooooOOOOOOOO....++++            ",
"                    ++++....ooooooooXXXX....++++                ",
"                    ++++....ooooooooXXXX....++++                ",
"                    ++++....ooooooooXXXX....++++                ",
"                    ++++....ooooooooXXXX....++++                ",
"                    ++++....ooooooooooooOOOO....++++            ",
"                    ++++....ooooooooooooOOOO....++++            ",
"                    ++++....ooooooooooooOOOO....++++            ",
"                    ++++....ooooooooooooOOOO....++++            ",
"                    ++++....ooooXXXX........++++                ",
"                    ++++....ooooXXXX........++++                ",
"                    ++++....ooooXXXX........++++                ",
"                    ++++....ooooXXXX........++++                ",
"                        ++++........++++++++                    ",
"                        ++++........++++++++                    ",
"                        ++++........++++++++                    ",
"                        ++++........++++++++                    ",
"                            ++++++++                            ",
"                            ++++++++                            ",
"                            ++++++++                            ",
"                            ++++++++                            "
};
