/* XPM */
static char *_5e86115103d4930f8cb1867db128391TpmC95eoUe6BJ47X[] = {
/* columns rows colors chars-per-pixel */
"64 64 185 2 ",
"   c None",
".  c black",
"X  c #010100",
"o  c #010101",
"O  c #030100",
"+  c #030201",
"@  c #020202",
"#  c gray1",
"$  c #040201",
"%  c #040404",
"&  c gray2",
"*  c #060606",
"=  c #070707",
"-  c #090501",
";  c #0B0601",
":  c #0B0502",
">  c #0A0704",
",  c gray3",
"<  c #090909",
"1  c gray4",
"2  c #0B0B0B",
"3  c gray5",
"4  c #0E0E0E",
"5  c gray6",
"6  c #120903",
"7  c #140A03",
"8  c #170B03",
"9  c #160D06",
"0  c #1B0D04",
"q  c #101010",
"w  c #111111",
"e  c gray7",
"r  c gray8",
"t  c #151515",
"y  c gray9",
"u  c #181818",
"i  c gray10",
"p  c gray11",
"a  c #1D1D1D",
"s  c #1E1E1E",
"d  c #201004",
"f  c #201005",
"g  c #211105",
"h  c #211206",
"j  c #211307",
"k  c #251205",
"l  c #261305",
"z  c #281405",
"x  c #221308",
"c  c #221409",
"v  c #22150A",
"b  c #24170C",
"n  c #24180D",
"m  c #25190E",
"M  c #251A0F",
"N  c #301807",
"B  c #311807",
"V  c #341A07",
"C  c #351B08",
"Z  c #361D0B",
"A  c #381C08",
"S  c #381D09",
"D  c #3A1F0B",
"F  c #3E1F08",
"G  c #3E1F09",
"H  c #241A13",
"J  c #3D2B19",
"K  c #202020",
"L  c #222222",
"P  c gray14",
"I  c #252525",
"U  c gray15",
"Y  c #272727",
"T  c #2A2724",
"R  c #2A2827",
"E  c #282828",
"W  c #2A2A2A",
"Q  c gray17",
"!  c gray18",
"~  c #2F2F2F",
"^  c gray19",
"/  c #313131",
"(  c #343434",
")  c gray21",
"_  c gray22",
"`  c #393939",
"'  c gray23",
"]  c #3C3C3C",
"[  c gray24",
"{  c #422109",
"}  c #42220B",
"|  c #49240A",
" . c #4B250A",
".. c #4E270B",
"X. c #562B0C",
"o. c #582C0C",
"O. c #5C2E0D",
"+. c #4B2E16",
"@. c #422E1B",
"#. c #462E18",
"$. c #4A311A",
"%. c #49331E",
"&. c #64320E",
"*. c #68330E",
"=. c #6D360F",
"-. c #6F370F",
";. c #70380F",
":. c #71380F",
">. c #6E3811",
",. c #693B17",
"<. c #723A12",
"1. c #753A10",
"2. c #763A10",
"3. c #703D16",
"4. c #743F17",
"5. c #783B10",
"6. c #793C10",
"7. c #42372B",
"8. c #573E24",
"9. c #42403F",
"0. c #634326",
"q. c #674424",
"w. c #67492A",
"e. c #7A4921",
"r. c #755230",
"t. c gray25",
"y. c #414141",
"u. c #444444",
"i. c #484848",
"p. c gray29",
"a. c #4C4C4C",
"s. c gray30",
"d. c gray31",
"f. c #505050",
"g. c #515151",
"h. c gray32",
"j. c gray33",
"k. c #555555",
"l. c #565656",
"z. c gray35",
"x. c #5A5A5A",
"c. c #5B5B5B",
"v. c gray37",
"b. c #5F5F5F",
"n. c #606060",
"m. c gray38",
"M. c #626262",
"N. c gray39",
"B. c #646464",
"V. c #656565",
"C. c #676767",
"Z. c #686868",
"A. c DimGray",
"S. c #814012",
"D. c #824012",
"F. c #844112",
"G. c #874312",
"H. c #884413",
"J. c #8A4413",
"K. c SaddleBrown",
"L. c #8C4816",
"P. c #844618",
"I. c #904E1C",
"U. c #804F26",
"Y. c #925220",
"T. c #925524",
"R. c #945624",
"E. c #965A29",
"W. c #945B2B",
"Q. c #985E2D",
"!. c #805A34",
"~. c #845D36",
"^. c #986435",
"/. c #9C6736",
"(. c #9D6736",
"). c #9D6A3A",
"_. c #9F6B3A",
"`. c #9F6E3E",
"'. c #A16F3F",
"]. c #A27243",
"[. c #A37343",
"{. c #898989",
"}. c #8D8D8D",
"|. c #9F9F9F",
" X c #A5A5A5",
/* pixels */
"                                                        % . , , , , . >                                                         ",
"                                                . . . ! l.. n.A.A.b.. l.^ . . .                                                 ",
"                                          . . . . l.l.b.B.l.i p.p.i l.B.b.j.l.. . . .                                           ",
"                                        . / _ _ _ ! c.A.A.A.] ( ( [ A.A.Z.c./ _ _ _ / .                                         ",
"                                        p c.A.A.A.s y.d.d.p.d.i i d.d.d.d.[ s A.A.A.c.s                                         ",
"                                      , A.A.A.A.A.B.s . $ . $ . $ $ . . . s B.A.A.A.B.A.,                                       ",
"                                  . . , A.A.A.A.A.. . %._.J.J.J.T.`.K.K.G . . A.A.A.l.. n.U .                                   ",
"                                . ( d.u.s c.[ s s &.&.U._.K.K.K.R.'.K.K.2.,.r.s s s U d.B.l.( .                                 ",
"                                . y.A.B.! _ 7.#.G K.K.E._.K.K.K.R.'.K.K.K.Y.[.G G d r A.A.A.y..                                 ",
"                                r u.A.A.l.H 0.(.K.K.K.E._.K.K.K.R.'.K.K.K.Y.[.K.K.X.H l.A.A.y..                                 ",
"                              . b.A.A.n.. -.Q.(.K.K.K.E._.K.K.K.R.'.K.K.K.Y.[.K.K.K.;.. B.A.y.. .                               ",
"                              . b.A.A.n.. <.Q.(.K.K.K.E._.K.K.K.R.'.K.K.K.Y.[.K.K.K.;.. n.! E l..                               ",
"                              . L f.f.T o.S.Q.(.K.K.K.E._.K.K.K.R.'.K.K.K.Y.[.K.K.K.P.w.R _ f.n..                               ",
"                              U U _ ! : K.K.Q.(.K.K.K.E._.K.K.K.R.'.K.K.K.Y.[.K.K.K.I.[.> u.A.n.U                               ",
"                            w A.A.E $ 8 K.K.Q.(.K.K.K.E._.K.K.K.R.'.K.K.K.Y.[.K.K.K.I.[.9 y.N.A.A.w                             ",
"                            w A.A.E B K.K.K.Q.(.K.K.K.E._.K.K.K.R.'.K.K.K.Y.[.K.K.K.I.[.L.B R A.A.w                             ",
"                            w A.A.E B K.K.K.Q.(.K.K.K.E._.K.K.K.R.'.K.K.K.Y.[.K.K.K.I.[.L.B U A.A.w                             ",
"                            w A.A.E B K.K.K.Q.(.K.K.K.E._.K.K.K.R.'.K.K.K.Y.[.K.K.K.I.[.L.B E A.A.w                             ",
"                            5 d.d.s B K.K.K.Q.(.K.K.K.E._.K.K.K.R.'.K.K.K.Y.[.K.K.K.I.[.L.B K d.p.5                             ",
"                            . . . . B K.K.K.Q.(.K.K.K.E._.K.K.K.R.'.K.K.K.Y.[.K.K.K.I.[.L.B . . . .                             ",
"                            w A.A.U B K.K.K.Q.(.K.K.K.E._.K.K.K.R.'.K.K.K.Y.[.K.K.K.I.[.L.B E A.A.w                             ",
"                            w A.A.E B K.K.K.Q.(.K.K.K.E._.K.K.K.R.'.K.K.K.Y.[.K.K.K.I.[.L.B E A.A.w                             ",
"                            w A.A.E B K.K.K.Q.(.K.K.K.E._.K.K.K.R.'.K.K.K.Y.[.K.K.K.I.[.L.B E A.A.w                             ",
"                            w A.A.E B K.K.K.Q.(.K.K.K.E._.K.K.K.R.'.K.K.K.Y.[.K.:.<.4.~.<.z E A.A.w                             ",
"                            w A.A.E B K.K.K.Q.(.K.K.K.E._.K.K.K.R.'.K.K.K.Y.[.K.k . . . . . E A.A.w                             ",
"                            . , , % B K.K.K.Q.(.K.K.K.E._.K.K.K.R.'.K.K.K.Y.[.K.k d.{..  X_ . , , .                             ",
"                            , u.u.i B K.K.K.Q.(.K.K.K.E._.K.K.K.R.'.K.K.K.Y.[.K.k s ( . _ y i u.u.5                             ",
"                            w A.A.E B K.K.K.Q.(.K.K.K.E._.K.K.K.R.'.K.K.K.Y.[.K. .V Z J Z 6 R A.A.w                             ",
"                            w A.A.E B K.K.K.Q.(.K.K.K.E._.K.K.K.R.'.K.K.K.Y.[.K.K.K.I.[.L.B E A.A.w                             ",
"                            w A.A.E B K.K.K.Q.(.K.K.K.E._.K.K.K.R.'.K.K.K.Y.[.K.K.K.I.[.L.B E A.A.w                             ",
"                            w A.A.E B K.K.K.Q.(.K.K.K.E._.K.K.K.R.'.K.K.K.Y.[.K.K.K.I.[.L.B E A.A.w                             ",
"                            , ! ! w B K.K.K.Q.(.K.K.K.E._.K.K.K.R.'.K.K.K.Y.[.K.K.K.I.[.L.B w ! ! ,                             ",
"                            % s s 2 B K.K.K.Q.(.K.K.K.E.'.K.K.K.R.'.K.K.K.Y.[.K.K.K.I.[.L.B 5 s s %                             ",
"                            w A.A.E B K.K.H.E.^.G.G.K.E.(.K.K.K.R.'.K.K.K.Y.[.K.K.K.I.[.L.B E A.A.w                             ",
"                            w A.A.E B K.K.0 . . . . &.E.'.K.K.K.R.'.K.K.K.Y.[.K.K.K.I.[.L.B E A.A.w                             ",
"                            w A.A.E B K.K.>.N . . *.D.E.(.K.K.K.R.'.K.K.K.Y.[.K.K.K.I.[.L.B E A.A.w                             ",
"                            w A.A.E B K.K.X.+.$.{  .6.E.(.K.K.K.R.'.K.K.K.Y.[.K.K.K.I.[.K.N Y A.A.w                             ",
"                            5 l.j.K B K.K.0 0.^.K.. &.E.'.K.K.K.R.'.K.K.K.Y.[.K.K.K.I.[.L.N K l.j.5                             ",
"                            . . . . B K.K.0 8./.K.. &.E.(.K.K.K.R.'.K.K.K.Y.[.K.K.K.I.[.L.B . . . .                             ",
"                            w B.n.U B K.K.S.} ; : S.H.E.'.K.K.K.R.'.K.K.K.Y.[.K.K.K.I.[.L.B U M.n.w                             ",
"                            w A.A.E B K.K.K.e.q.o.K.K.E.'.K.K.K.R.'.K.K.K.Y.[.K.K.K.I.[.L.B E A.A.w                             ",
"                            w A.A.E B K.K.K.Q.(.K.K.K.E.(.K.K.K.R.'.K.K.K.Y.[.K.K.K.I.[.L.B E A.A.w                             ",
"                            w A.A.E B K.K.K.Q.(.K.K.K.E.'.K.K.K.R.'.K.K.K.Y.[.K.K.K.I.[.L.B E A.A.w                             ",
"                            w A.A.E B K.K.K.Q.(.K.K.K.E.(.K.K.K.R.'.K.K.K.Y.[.K.K.K.I.[.L.B E A.A.w                             ",
"                            . w w % B K.K.K.Q.(.K.K.K.E._.K.K.K.R.'.K.K.K.Y.[.K.K.K.I.[.L.V > w w #                             ",
"                            , ' [ i B K.K.K.Q.(.K.K.K.E._.K.K.K.R.'.K.K.K.Y.[.K.K.K.I.[.L.B r [ [ ,                             ",
"                            w A.A.E B K.K.K.Q.(.K.K.K.E._.K.K.K.R.'.K.K.K.Y.[.K.K.K.I.[.L.B R A.A.w                             ",
"                            w A.A.E B K.K.K.Q.(.K.K.K.E._.K.K.K.R.'.K.K.K.Y.[.K.K.K.I.[.L.B E A.A.w                             ",
"                            w A.A.E B K.K.K.Q.(.K.K.K.E._.K.K.K.T.'.K.K.K.Y.[.K.K.K.I.[.L.B E A.A.w                             ",
"                            w A.A.E B K.K.K.Q.(.K.K.K.E._.K.K.K.R.'.K.K.K.Y.[.K.K.K.I.[.L.B E A.A.w                             ",
"                            , ( _ r B K.K.K.Q.(.K.K.K.E._.K.K.K.R.'.K.K.K.Y.[.K.K.K.Y.[.L.B r ( ( ,                             ",
"                            % i u , B K.K.K.Q.(.K.K.K.E._.K.K.K.R.'.K.K.K.Y.[.K.2.=.<.!.>.z , y i %                             ",
"                            w A.A.E B K.K.K.Q.(.K.K.K.E._.K.K.K.R.'.K.K.K.Y.[.K.d . # . . . E A.A.w                             ",
"                            w A.A.E B K.K.K.Q.(.K.K.K.E._.K.K.K.R.'.K.K.K.Y.[.K.l f.}..  X[ E A.A.w                             ",
"                            w A.A.E B K.K.K.Q.(.K.K.K.E._.K.K.K.R.'.K.K.K.Y.[.K.k s / . _ r E A.A.w                             ",
"                            w A.A.E B K.K.K.Q.(.K.K.K.E._.K.K.K.R.'.K.K.K.Y.[.K...S D @.Z 8 E A.A.w                             ",
"                            5 c.c.L B K.K.K.Q.(.K.K.K.E._.K.K.K.R.'.K.K.K.Y.[.K.K.K.I.[.L.B L c.c.5                             ",
"                            . . . . B K.K.K.Q.(.K.K.K.E._.K.K.K.R.'.K.K.K.Y.[.K.K.K.I.[.L.B . . . .                             ",
"                            5 c.c.L B K.K.K.Q.(.K.K.K.E._.K.K.K.R.'.K.K.K.Y.[.K.K.K.I.[.L.B L c.c.5                             ",
"                            w A.A.E B K.K.K.Q.(.K.K.K.E._.K.K.K.R.'.K.K.K.Y.[.K.K.K.I.[.L.B R A.A.w                             ",
"                            w A.A.E B K.K.K.Q.(.K.K.K.E._.K.K.K.R.'.K.K.K.Y.[.K.K.K.I.[.L.B E A.A.w                             ",
"                            w A.A.E B K.K.K.Q.(.K.K.K.E._.K.K.K.R.'.K.K.K.Y.[.K.K.K.I.[.L.B E A.A.w                             ",
"                            w A.A.E B K.K.K.Q.(.K.K.K.E._.K.K.K.R.'.K.K.K.T.[.K.K.K.I.[.L.B E A.A.w                             ",
"                            . i i , ; d d d c c d d d c b d g g k M 0 g g d M d g g k H d > , r i %                             "
};
