/* XPM */
static char *a25f8c363f7140a9a42ce8d42c5d465fcnAMkQtHJxHQHoCr[] = {
/* columns rows colors chars-per-pixel */
"64 64 218 2 ",
"   c None",
".  c #0D0D0F",
"X  c #18180F",
"o  c #1C1C1A",
"O  c #282B19",
"+  c #242617",
"@  c #31341F",
"#  c #2E1E22",
"$  c #292928",
"%  c #322226",
"&  c #3A2C2C",
"*  c #352629",
"=  c #343523",
"-  c #3A3C25",
";  c #393A2B",
":  c #2F2F30",
">  c #3D2E32",
",  c #343434",
"<  c #3B3B3D",
"1  c #3A3B35",
"2  c #453938",
"3  c #41352F",
"4  c #3F4032",
"5  c #42422C",
"6  c #484A2E",
"7  c #5B4E25",
"8  c #4B4C32",
"9  c #464538",
"0  c #524B3B",
"q  c #4D5032",
"w  c #54533A",
"e  c #5A5B3C",
"r  c #565338",
"t  c #5D512B",
"y  c #64562A",
"u  c #615327",
"i  c #655934",
"p  c #645938",
"a  c #5F623E",
"s  c #67623E",
"d  c #3F3F41",
"f  c #4D3F42",
"g  c #434344",
"h  c #4C4B44",
"j  c #4A4A4A",
"k  c #494546",
"l  c #554A48",
"z  c #4F504A",
"x  c #545443",
"c  c #5B5C42",
"v  c #53534C",
"b  c #5C564A",
"n  c #5C5B4C",
"m  c #5A5743",
"M  c #545453",
"N  c #5A5A55",
"B  c #5C5C5B",
"V  c #5A5556",
"C  c #534F52",
"Z  c #635C44",
"A  c #655E49",
"S  c #635A5A",
"D  c #5F6142",
"F  c #5F624F",
"G  c #5F6054",
"H  c #636642",
"J  c #676944",
"K  c #696C45",
"L  c #62644D",
"P  c #6B6D4B",
"I  c #6A6448",
"U  c #726A4A",
"Y  c #6E714D",
"T  c #71744E",
"R  c #777A4E",
"E  c #656652",
"W  c #696659",
"Q  c #736C58",
"!  c #6D7051",
"~  c #6E705E",
"^  c #727553",
"/  c #767953",
"(  c #7A7D53",
")  c #74745B",
"_  c #7A7C5C",
"`  c #7B745C",
"'  c #626263",
"]  c #6C6B6C",
"[  c #6B6765",
"{  c #726C67",
"}  c #7B7D64",
"|  c #787468",
" . c #6F6F71",
".. c #727272",
"X. c #7B7B7C",
"o. c #7A7976",
"O. c #645E61",
"+. c #837E75",
"@. c #827D6F",
"#. c #7E8157",
"$. c #7E8064",
"%. c #7F807A",
"&. c #81845D",
"*. c #868A59",
"=. c #878A5B",
"-. c #8D915F",
";. c #828562",
":. c #868961",
">. c #84856B",
",. c #8A8D68",
"<. c #8E9164",
"1. c #8E926C",
"2. c #93976A",
"3. c #888879",
"4. c #939573",
"5. c #969972",
"6. c #999C74",
"7. c #9B9E7A",
"8. c #95977A",
"9. c #918F77",
"0. c #9EA26F",
"q. c #9EA17C",
"w. c #9CA077",
"e. c #A2A57C",
"r. c #A4A77A",
"t. c #7F7F81",
"y. c #887F82",
"u. c #838384",
"i. c #8D8D8D",
"p. c #898586",
"a. c #928B89",
"s. c #989988",
"d. c #939394",
"f. c #9C9C9C",
"g. c #9A9695",
"h. c #938F8D",
"j. c #A19C95",
"k. c #A2A583",
"l. c #AAAE83",
"z. c #AAAD8C",
"x. c #A5A887",
"c. c #AEB28B",
"v. c #ADB186",
"b. c #B2B58C",
"n. c #B4B88D",
"m. c #A7A894",
"M. c #AFB194",
"N. c #B2B592",
"B. c #B6BA93",
"V. c #BABD96",
"C. c #BABD9A",
"Z. c #B4B699",
"A. c #A2A2A3",
"S. c #ABA9A8",
"D. c #BABBA8",
"F. c #B3B2B2",
"G. c #B7B7B8",
"H. c #BCBAB8",
"J. c #B4AEB0",
"K. c #9EA08C",
"L. c #C1BCBE",
"P. c #BDC19B",
"I. c #BEC1A2",
"U. c #BEC0AB",
"Y. c #C2C5A3",
"T. c #C3C5AA",
"R. c #C6C9AB",
"E. c #C9CCAC",
"W. c #C6C9A6",
"Q. c #CACCB2",
"!. c #C9C9B9",
"~. c #CED1B3",
"^. c #D1D3B6",
"/. c #D2D5BB",
"(. c #D6D9BE",
"). c #D8DABF",
"_. c #CCD0AF",
"`. c #C1C59F",
"'. c #BFBFC0",
"]. c #C3BFC0",
"[. c #C2C2C3",
"{. c #CCCBCC",
"}. c #C9C7C4",
"|. c #D1CECF",
" X c #D3D4C2",
".X c #D7D9C2",
"XX c #DADCC4",
"oX c #DBDDCB",
"OX c #D2D1C8",
"+X c #D7D8D0",
"@X c #DCDBDC",
"#X c #D8D7D5",
"$X c #E0DFDC",
"%X c #DEE1C9",
"&X c #E2E4CE",
"*X c #E3E5D2",
"=X c #E7E9D6",
"-X c #EAECDC",
";X c #E6E7DA",
":X c #DFDFE0",
">X c #E4E3E3",
",X c #ECECE4",
"<X c #ECECEC",
"1X c #E8E7E8",
"2X c #EFF0E4",
"3X c #F1F2E6",
"4X c #F3F4EC",
"5X c #EFEFF0",
"6X c #F4F4F3",
"7X c #F9F9F4",
"8X c #F9F9F4",
"9X c #FCFCFA",
"0X c white",
"qX c #FEFEFE",
"wX c #FEFEFC",
"eX c #FCFCFC",
"rX c #F7F8F2",
"tX c #F0EFEE",
/* pixels */
"                                                                                                                                ",
"                                                                                                                                ",
"                                                X O @ @ @ @ @ @ = @ @ @ @                                                       ",
"                                              5 8 r H K Y ! ) ^ ^ Y J H s q 4                                                   ",
"                                        X O = q K R =.2.0.w.r.k.q.6.<.-.*.K 6 4 =                                               ",
"                                        8 D Y #.<.6.r.c.C.P.I.P.I.V.n.l.w.2.#.T J w -                                           ",
"                                    X 8 J &.6.r.v.P.W.^..X.X%X).%X(./.W.P.b.r.w.<.Y 6 -                                         ",
"                                    q Y :.w.n.P.Y.~./..X%X%X%X%X%X%X%X/.E.E.I.N.l.<.T e -                                       ",
"                                X 8 J =.r.V._.(.).&X&X&X&X&X*X&X%X*X*X%X%X).%X_.P.r.2.T 6 -                                     ",
"                                + e &.w.V.E.(.%X&X*X-X-X3X3X3X3X3X2X3X-X=X&X%X(._.P.l.=.D 8                                     ",
"                                O P 2.N.~..X&X*X&X-X3XrX8X8X8X8X8X8X8X3X-X=X*X&XXX^.P.6.T e                                     ",
"                              5 q _ e.V.^.XX&X=X-X3X8X7X9XeXeXeX9X9X9X8X4X-X=X*X&X^.Y.e.&.P =                                   ",
"                            X 8 K :.l.`.(.%X&X-X4XrXeXeXqXqXqXqXqXqXqXqX7X4X-X=X&X).W.v.2.R 6 -                                 ",
"                            + c &.5.b.`._.(.&X-X4X9XqXqXqXqXqXqXqXqXqXqXeX4X-X&XXX_.`.n.r.=.c 8                                 ",
"    $                       O P 2.l.n.P.`._.).-X8X7XqXqXqXqXqXqXqXqXqXqXqXrX-X%X_.W.P.P.n.2.^ e                                 ",
"    < j V                   O P 6.b.W.E._.(.%X=X3XrXeXeXqXqXqXqXqXqXqXeX8X3X-X&X(.^._.`.P.6.^ e                                 ",
"    j B [ M                 O ! 6.Z.~.(.%X%X%X*X=X3X8X9XeXeXqXqXeXeXeX7X3X-X*X$X%XXXXX^.Y.7./ c                                 ",
"    j X.A.i.'               O ! w.C./.%X*X-X2X2X3X4X4X8XeXeXqXqXqX9X7X4X4X3X2X<X-X=X&X/.W.7./ c                                 ",
"    j g.{.S.X.[             O ! 7.P..X;X3X4X8X8X6X4X,X4X7XeXqXqXqX8X3X4X4XrXeX6X7X4X-XXXW.e.^ e                                 ",
"    j f.@X'.S.u.            O ! 6.Z.^..X*X@X@X>X,XtX4X4X4X4X4XrX4X4X4X4X4X,X1X<X$X$X+X^.W.7.^ c                                 ",
"    j f.:X#X[.f.            O ! 7.Z.Q.!.!.}.].|.@X1XtX4X2X,X-X-X-X2X4X4X6X:X].].L.}./.R.Y.7.^ c                                 ",
"    j A.:X:X:XF.'           O E 4.k.M.s.a.p.y.g.J.].>X1X3X3XtX3X4X4X6X$X].J.j.y.+.h.j.m.N.4.^ e                                 ",
"    j A.:X<X6X'.t.[         O P 4.9.a.@.V l f S +.A.|.$X6X8X7X7X7X6X<X|.J.y.S f f S { 3.k.>.^ w                                 ",
"    j f.:X<XeX{.A.X.        O c @.@.{ l f 2 3 f V y.J.|.tX8XeXeX9X<X$XJ.y.{ f 2 3 f l Q ;.) P w                                 ",
"    j A.:X5XeX:XF.i.        O w s A 0 3 % % # * 3 S h.].<XtXeXeXqX1X|.g.S f * % # * 3 0 I A H 8                                 ",
"    j f.|.1XeX@XG.i.        O q s p 2 3 % # # % % S y.L.<XtX7X7X9X>X{.h.S 2 % # # # % 2 A p e 8                                 ",
"    j d.{.:X5X#XG.i.        O 8 s 0 3 3 # # # # # V y.H.1X,X3X4X8X$X}.a.l f # # # # # 2 m e p 6                                 ",
"    j d.[.:X5X:X[.f.          4 0 0 2 3 * % # * 2 { j.J. X X.X)..X X}.g.{ f * % # * 3 2 w 0 6                                   ",
"    j d.'.@X5X:X{.f.            @ 5 x 2 & * # 2 l y.J.J.I.P.P.V.B.Y.!.S.y.O.2 > # 3 2 0 w 5                                     ",
"      X.d.[.<X>X:XF.'           @ 2 w 0 0 l l [ y.J.|.OX X X)./.^.OX*X}.J.y.O.S l 0 0 0 r 5                                     ",
"        ' S.1X<X5X'.t.'         O 5 q Z I Q @.g.J.|.,X<X,X,X,X,X-X,XtX1X#XL.g.+.| E c e w 5                                     ",
"        M A.>X5XeX{.f.t.      5 7 a T K I ` @.9.g.J.oXoX.X%X$XXX.XoX=XOXJ.m.8.@.) U P Y K e =                                   ",
"        j A.:X5XwX@XG.i.    X 6 K R *.( Y ( :.:.$.x.!.U.U._..X_.Y.Q..XD.s.5.<.@.^ / ( #.*.K 6 -             . o o o o           ",
"        j f.#X1X9X#XG.i.4 4 8 #.7.x.c.q.1.:.#.^ ! :.s.8.4.k.x.q.8.q.x.4.@.R R R #.1.w.z.N.6._ D $         $ : , d d : $         ",
"        j d.[.:X6X#XG.u.h D J q.Q./..XW.b.4.( J a D ! P K Y Y P U s @.K D s s / 1.z.Y./.%XY.r.) ; $ o o o : d j B C d :         ",
"        g d.[.@X6X@X'.i.F $.8.z.T.Y.I.I.I.Z.m.k.s.K.m.8.:.#.#.#.@.@.2.0.K.s.s.z.Z.M.m.K.f.a.$.G g j j z j C M B ' C d d         ",
"        j i.[.@X5X:X{.g.~ s.I.U.I.N.r.P._./.+X+X+X+X+XU.q.2.*.*.*.k.U.}.+X+X+X+XXXZ.%...O.N v z j B .. . . .] [ ' C d ,         ",
"          t.f.[.<X>X:XA.~ %.%.3.3.>.:.6.c.P.U.T.U._.~.R.U.Z.b.N.N.I.~.R.R.R.R.U.I.s.[ ' B O.' ] ......[ W W Q S B j d :         ",
"            ' F.>X<X6XF. .' M M v x c ( 2.w.v.v.z.P.I./.%X.X).%X&X.X^.R.B.n.c.l.l.$.v N M ] o.p.d.p.X.[ m p p Z V j d :         ",
"            M A.:X<XeXU.%.] ' ' ] G x ) 2.q.P.I.R.~..X.X%X(.~.^..X.XoX.X^.E.Y.P.n.>.n N B ' | @.>.| W A r i i Z n j d ,         ",
"            j A.:X5XeX'.t.t. .t.t.[ C ~ 1.z.E.(.&X;X,X&X.X~.W.W.E..X;X;X-X*X.X_.P.3.F N ' W Q U U s Z y 7 t y e b h < :         ",
"          d j u.F.[.#XF.i.t. . .] M 4 x W 1.c.P.R.~..XQ.I.P.n.n.b.I.^.^.~.E.I.c.w.) z N ' W U s i i i y r p Z A N j < :         ",
"        . , j ] u.f.S.A.i.t. .' M <   O 4 ! 4.w.v.B.I.B.l.q.0.0.0.v.P.C.B.b.l.2.#.F 4 M ' E U i 7 u u t Z A W W S j < :         ",
"        , C ' X.i.i.i.u.X. .B M j 4 $ 8 D ,.c.n.n.v.k.5.:.<.2.-.=.<.4.q.x.n.V.x.w.) h N ' [ ` ` @.@.@.Q W O.[ B B j < ,         ",
"    . d j ' t.u.i.t...] ' N j 9 8 4 = D _ k.U.I.P.w.$.R a #.*.#.T Y Y :.w.n.W.P.c.$.v G ' ..3.i.9.s.a.+.o.{ O.B M j < :         ",
"      : d C ' ] ] t.i.d.d.o.N h ; ; = D #.z.^.~.^.N.2.#.s #.<.#.T T Y 1.c.R.%XE.V.3.v N ' ..p.d.h.h.a.+.[ W A V V j < :         ",
"        o d j j j X.S.U.}.K.~ x   + @ H =.N.%X*X*XI.q.#.a #.2.#.T T R w.I..X2X.XV.>.v N ' X.i.d.f.a.a.| A Z p m b h < ,         ",
"          $ d d d ' t.h.m.$.x 9       w H s.T..X;X~.B.0.#.<.0.*.*.=.<.b./.oX*XU.q.) 9 N '  .%.$.@.@.| W p i i e b h < :         ",
"                  , 9 L _ c             - } z.!.,X.XE.c.<.0.2.-.<.0.r.Y.*X%X.XM.;.L 9 M O.W Q U Z I s i t u y p b k < :         ",
"                      x L               = } M.R.%XT.z.4.#.#.#.#.R #.:.z.!./..XM.;.L < j ' ~ @.Q p s i y 7 u y p Z h < :         ",
"                                        O } Z.I.~.c.:._ K J s H H J P 1.c.U.(.z.#.n 1 v ' ..3.{ i u y y 7 t y p b j < :         ",
"                                        O ) z.I.^.N.4.#.a a q q q a T 4.V.Y.^.x.#.n = < g B ] { Q @.i y 7 t p r h 2 :           ",
"                                        O ! k.C.(.C.q.#.H q   O = a R w.Y.W.E.k./ e   o $ g B ] @.@.U i 7 t w h g ,             ",
"                                        O } z.R.*XR.b.1.P w   + O D =.c.^./..Xz._ n       < d M [ W ` Q A Z z 9 : $             ",
"                                        O | Z. X2X%XR.k.Y e   X + P 4.I.;X*X*XM.$.L         o d V ] +.o.| S j ,                 ",
"                                        O $.I.+X6X;X(.x._ D   o + ) k.Q.,X,X2XD.>.E           1 2 C O.S S j 1 $                 ",
"                                        O 3.!.$X9XtX;XZ.$.L   o O $.Z.OXrX8X7XU.>.W             $ , g g g ,                     ",
"                                          ~ h.m.U.D.M.3.D         F $.K.D.D.U.s.E                 : < < <                       ",
"                                            9 E $.} _ c             6 L } } $.G                                                 ",
"                                              x E E L                 x E E E                                                   ",
"                                                                                                                                ",
"                                                                                                                                ",
"                                                                                                                                ",
"                                                                                                                                "
};
